<?xml version="1.0" encoding="UTF-8"?>
<svg id="Layer_2" xmlns="http://www.w3.org/2000/svg" version="1.1" viewBox="0 0 1728 1332">
  <!-- Generator: Adobe Illustrator 29.8.1, SVG Export Plug-In . SVG Version: 2.1.1 Build 2)  -->
  <defs>
    <style>
      .st0 {
        fill: #00a84f;
      }

      .st1 {
        fill: #fff;
      }

      .st2 {
        font-family: FuturaCyrillicBook, 'Futura PT';
        font-size: 168px;
        letter-spacing: .04em;
      }

      .st3 {
        fill: #00a94f;
      }
    </style>
  </defs>
  <text class="st2" transform="translate(248.81 1148.67)"><tspan x="0" y="0">GREEN &amp; WHITE</tspan></text>
  <g>
    <path class="st0" d="M591.04,703.02"/>
    <path class="st3" d="M838.1,659.01"/>
    <path class="st1" d="M825.83,769.16"/>
    <path class="st1" d="M601.55,671.93"/>
    <path class="st1" d="M1209.91,872.5"/>
    <rect x="879.15" y="265.99" width="57.72" height="336.26"/>
    <path d="M569.7,882.5s3.06-8.47,10.19-21.46c17.2-31.37,50.02-89.1,73.9-117.85,26.96-32.45,77.37-81.2,123.69-114.63,53.48-38.6,101.48-59.74,101.48-59.74l57.91-2.41v39.33c-45.18,14.08-82.22,30.28-110.09,44.09-31.8,15.77-72.24,36.09-118.18,73.63-26.77,21.86-47.24,42.91-61.48,58.84-12.92,15.58-25.85,31.18-38.77,46.76l-38.6,53.43h-.04Z"/>
    <path class="st0" d="M569.7,882.5s2.43-22.73,8.51-48.8c7.99-34.4,31.66-95.41,46.22-122.97,0,0,14.54-31.59,29.93-55.76,10.17-15.95,30.06-51.64,49.75-77.02,38.42-49.5,57.26-60.23,57.26-60.23l53.95-1.71v19.74s-57.55,40.87-121.41,114.63c-22.86,26.42-46.53,58.82-66.33,94.87-17.87,32.53-50.29,113.65-50.29,113.65,0,0-6.76,17.45-7.51,23.57l-.1.06h.02v-.02Z"/>
    <path d="M570.28,557.24l.08-291.25h133.64v223.53l-16.24,25.21-10.63,18.45s-34.42,8.19-40.29,10.25l-66.58,13.83h.02v-.02Z"/>
    <path d="M569.74,861.89l.67-372.37h133.61s-55.1,84.34-91.16,181.12c-30.62,82.14-39.81,175.44-42.99,210.53-.21,2.35-.12,1.04-.12,1.04v-20.32Z"/>
    <polygon class="st0" points="761.26 530.95 761.26 265.99 815.34 265.99 815.34 532.97 761.26 530.95"/>
    <rect x="997.44" y="265.99" width="50.52" height="428.38"/>
    <path d="M569.7,882.58s35.92-42.49,61.69-65.6c24.38-21.84,84.15-70.32,124.73-91.62,40.6-21.32,82.26-38.06,116.52-47.69,94.3-26.5,122.2-24.56,122.2-24.56l53.1-1.89v52.68s-51.25-4.16-134.45,7.53c-57.22,8.05-146.82,35.44-207.37,67.95-23.46,12.6-53.45,31.84-61.25,37.79-4.26,3.24-11.83,8.92-11.83,8.92l-.75.62s-27.23,23.77-36.81,32.49l-25.75,23.38h-.02Z"/>
    <rect x="1096.24" y="265.99" width="77.12" height="538.89"/>
    <path d="M1173.36,897.29s-28.53-18.7-67.55-33.48c-39.02-14.78-88.37-26.57-108.49-31.05-63.78-14.16-137.39-15.03-137.39-15.03,0,0-111.94,3.12-165.5,17.41-19.39,5.16-61.24,17.89-90.85,30.3-18.22,7.62-33.88,17.22-33.88,17.22v-.12s-.06.15.67-.48c5.85-4.96,34.63-28.69,67.86-48.12,5.35-3.12,42.25-21.24,47.21-23.49,25.51-11.54,59.91-29.42,111.07-43.04,52.08-13.87,101.68-20.45,131.02-20.45,46.37,0,107.34.73,159.44,9.83,21.41,3.75,86.39-8.87,86.39-8.87v149.38"/>
    <path class="st1" d="M590.58,700.9"/>
    <path class="st1" d="M742.88,661.65"/>
  </g>
</svg>