<?xml version="1.0" encoding="UTF-8"?>
<svg id="Layer_2" xmlns="http://www.w3.org/2000/svg" version="1.1" viewBox="0 0 1728 1332">
  <!-- Generator: Adobe Illustrator 29.8.1, SVG Export Plug-In . SVG Version: 2.1.1 Build 2)  -->
  <defs>
    <style>
      .st0 {
        fill: #00a84f;
      }

      .st1, .st2 {
        isolation: isolate;
      }

      .st2 {
        font-family: FuturaCyrillicBook, 'Futura PT';
        font-size: 233.7px;
        letter-spacing: .04em;
      }

      .st3 {
        fill: #fff;
      }

      .st4 {
        fill: #00a94f;
      }
    </style>
  </defs>
  <g class="st1">
    <g class="st1">
      <text class="st2" transform="translate(0 1251.27)"><tspan x="0" y="0">GREEN &amp; WHITE</tspan></text>
    </g>
  </g>
  <g>
    <path class="st0" d="M453.92,688.67"/>
    <path class="st4" d="M797.59,627.45"/>
    <path class="st3" d="M780.52,780.67"/>
    <path class="st3" d="M468.54,645.42"/>
    <rect x="854.69" y="80.73" width="80.29" height="467.76"/>
    <path d="M424.23,938.33s4.26-11.78,14.17-29.85c23.93-43.64,69.58-123.94,102.8-163.94,37.5-45.14,107.63-112.95,172.06-159.46,74.39-53.69,141.16-83.1,141.16-83.1l80.56-3.35v54.71c-62.85,19.59-114.37,42.12-153.14,61.33-44.24,21.94-100.49,50.2-164.4,102.42-37.24,30.41-65.71,59.69-85.52,81.85-17.97,21.67-35.96,43.37-53.93,65.05l-53.69,74.32h-.07Z"/>
    <path class="st0" d="M424.23,938.33s3.38-31.62,11.84-67.88c11.11-47.85,44.04-132.72,64.29-171.06,0,0,20.23-43.94,41.63-77.57,14.15-22.19,41.82-71.83,69.21-107.14,53.44-68.86,79.65-83.78,79.65-83.78l75.05-2.38v27.46s-80.06,56.85-168.89,159.46c-31.8,36.75-64.73,81.82-92.27,131.97-24.86,45.25-69.96,158.09-69.96,158.09,0,0-9.4,24.27-10.45,32.79l-.14.08h.03v-.03h0Z"/>
    <path d="M425.04,485.88l.11-405.15h185.9v310.94l-22.59,35.07-14.79,25.67s-47.88,11.39-56.05,14.26l-92.62,19.24h.03v-.03h0Z"/>
    <path d="M424.29,909.66l.93-517.99h185.86s-76.65,117.32-126.81,251.95c-42.59,114.26-55.38,244.05-59.8,292.86-.29,3.27-.17,1.45-.17,1.45v-28.27h-.01Z"/>
    <polygon class="st0" points="690.7 449.31 690.7 80.73 765.93 80.73 765.93 452.12 690.7 449.31"/>
    <rect x="1019.24" y="80.73" width="70.28" height="595.9"/>
    <path d="M424.23,938.45s49.97-59.11,85.81-91.25c33.91-30.38,117.06-97.82,173.51-127.45,56.48-29.66,114.43-52.94,162.09-66.34,131.18-36.86,169.99-34.16,169.99-34.16l73.87-2.63v73.28s-71.29-5.79-187.03,10.47c-79.6,11.2-204.24,49.3-288.46,94.52-32.63,17.53-74.35,44.29-85.2,52.57-5.93,4.51-16.46,12.41-16.46,12.41l-1.04.86s-37.88,33.07-51.2,45.2l-35.82,32.52h-.04Z"/>
    <rect x="1156.68" y="80.73" width="107.28" height="749.63"/>
    <path d="M1263.96,958.91s-39.69-26.01-93.97-46.57c-54.28-20.56-122.93-36.96-150.92-43.19-88.72-19.7-191.12-20.91-191.12-20.91,0,0-155.72,4.34-230.22,24.22-26.97,7.18-85.19,24.89-126.38,42.15-25.35,10.6-47.13,23.95-47.13,23.95v-.17s-.08.21.93-.67c8.14-6.9,48.17-39.91,94.4-66.94,7.44-4.34,58.77-29.55,65.67-32.68,35.49-16.05,83.34-40.92,154.5-59.87,72.45-19.29,141.44-28.45,182.26-28.45,64.5,0,149.32,1.02,221.79,13.67,29.78,5.22,120.17-12.34,120.17-12.34v172.87"/>
    <path class="st3" d="M453.28,685.72"/>
    <path class="st3" d="M665.14,631.12"/>
  </g>
</svg>