<svg viewBox="748.1787365177195 578.088 242.29275808936825 245.088" version="1.1" xmlns="http://www.w3.org/2000/svg" id="Layer_2" style="max-height: 500px" width="242.29275808936825" height="245.088">
  
  <defs>
    <style>
      .st0 {
        fill: #00a84f;
      }

      .st1 {
        letter-spacing: .02em;
      }

      .st1, .st2 {
        fill: #fff;
        font-family: Waltograph, Waltograph;
        font-size: 120px;
      }

      .st1, .st2, .st3 {
        isolation: isolate;
      }

      .st2 {
        letter-spacing: .04em;
      }

      .st3 {
        display: none;
      }
    </style>
  </defs>
  <g>
    <rect height="125.95" width="21.62" y="586.59" x="872.36"/>
    <path d="M756.46,816.21s1.15-3.17,3.81-8.04c6.44-11.75,18.74-33.38,27.68-44.15,10.1-12.16,28.98-30.41,46.33-42.93,20.03-14.46,38.01-22.38,38.01-22.38l21.69-.91v14.73c-16.92,5.27-30.8,11.34-41.24,16.51-11.92,5.9-27.06,13.51-44.27,27.58-10.02,8.19-17.69,16.07-23.03,22.04-4.84,5.84-9.68,11.68-14.52,17.52l-14.46,20.02h0Z"/>
    <path d="M756.46,816.21s.91-8.51,3.18-18.28c2.99-12.89,11.86-35.73,17.31-46.06,0,0,5.44-11.83,11.21-20.89,3.81-5.98,11.26-19.34,18.63-28.85,14.39-18.55,21.45-22.56,21.45-22.56l20.21-.64v7.4s-21.56,15.31-45.48,42.94c-8.56,9.89-17.43,22.03-24.84,35.53-6.69,12.19-18.84,42.57-18.84,42.57,0,0-2.53,6.54-2.81,8.82l-.04.02h.02Z" class="st0"/>
    <path d="M756.67,694.37l.03-109.1h50.06v83.73l-6.08,9.44-3.98,6.91s-12.89,3.07-15.09,3.84l-24.94,5.18Z"/>
    <path d="M756.47,808.49l.25-139.48h50.05s-20.63,31.59-34.15,67.84c-11.47,30.76-14.91,65.72-16.1,78.86-.08.88-.05.39-.05.39v-7.61Z"/>
    <polygon points="828.21 685.14 828.21 585.89 848.46 585.89 848.46 685.89 828.21 685.14" class="st0"/>
    <rect height="160.46" width="18.93" y="586.59" x="916.67"/>
    <path d="M756.46,816.24s13.46-15.92,23.11-24.57c9.13-8.18,31.52-26.34,46.73-34.32,15.2-7.98,30.81-14.26,43.64-17.86,35.32-9.93,45.78-9.2,45.78-9.2l19.89-.71v19.74s-19.2-1.56-50.36,2.82c-21.43,3.01-55,13.27-77.67,25.45-8.79,4.72-20.02,11.92-22.95,14.15-1.6,1.22-4.44,3.34-4.44,3.34l-.28.24s-10.2,8.9-13.79,12.17l-9.65,8.76h0Z"/>
    <rect height="200.54" width="28.89" y="586.59" x="953.67"/>
    <path d="M756.46,816.24v-.05s-.02.05.25-.18c2.19-1.86,12.96-10.74,25.39-18,2-1.17,15.81-7.95,17.66-8.79,9.54-4.32,22.42-11.01,41.55-16.11,19.49-5.19,38.05-7.65,49.02-7.65,17.35,0,40.16.27,59.65,3.68,8.01,1.4,32.33-3.32,32.33-3.32v55.89s-10.67-6.99-25.28-12.53c-14.6-5.53-33.06-9.94-40.59-11.61-23.86-5.3-51.4-5.63-51.4-5.63,0,0-41.88,1.17-61.92,6.51-7.25,1.93-22.92,6.69-33.99,11.33-6.81,2.85-12.67,6.44-12.67,6.44v.02Z"/>
  </g>
  <g class="st3">
    <text transform="translate(542.08 964.58)" class="st2"><tspan y="0" x="0">Gre</tspan></text>
    <text transform="translate(704.44 964.58)" class="st1"><tspan y="0" x="0">e</tspan></text>
  </g>
</svg>