<svg width="17" height="17" viewBox="0 0 17 17" fill="none" xmlns="http://www.w3.org/2000/svg">
<path d="M15.7917 16.9792L13.3333 14.5208V16.375H11.6667V11.6667H16.375V13.3333H14.5L16.9583 15.7917L15.7917 16.9792ZM8.33333 16.6667C7.18056 16.6667 6.09722 16.4479 5.08333 16.0104C4.06944 15.5729 3.1875 14.9792 2.4375 14.2292C1.6875 13.4792 1.09375 12.5972 0.65625 11.5833C0.21875 10.5694 0 9.48611 0 8.33333C0 7.18056 0.21875 6.09722 0.65625 5.08333C1.09375 4.06944 1.6875 3.1875 2.4375 2.4375C3.1875 1.6875 4.06944 1.09375 5.08333 0.65625C6.09722 0.21875 7.18056 0 8.33333 0C9.48611 0 10.5694 0.21875 11.5833 0.65625C12.5972 1.09375 13.4792 1.6875 14.2292 2.4375C14.9792 3.1875 15.5729 4.06944 16.0104 5.08333C16.4479 6.09722 16.6667 7.18056 16.6667 8.33333C16.6667 8.61111 16.6528 8.88889 16.625 9.16667C16.5972 9.44444 16.5556 9.72222 16.5 10H14.7917C14.8611 9.72222 14.9132 9.44444 14.9479 9.16667C14.9826 8.88889 15 8.61111 15 8.33333C15 8.05556 14.9826 7.77778 14.9479 7.5C14.9132 7.22222 14.8611 6.94444 14.7917 6.66667H11.9583C12 6.94444 12.0312 7.22222 12.0521 7.5C12.0729 7.77778 12.0833 8.05556 12.0833 8.33333C12.0833 8.61111 12.0729 8.88889 12.0521 9.16667C12.0312 9.44444 12 9.72222 11.9583 10H10.2917C10.3333 9.72222 10.3646 9.44444 10.3854 9.16667C10.4062 8.88889 10.4167 8.61111 10.4167 8.33333C10.4167 8.05556 10.4062 7.77778 10.3854 7.5C10.3646 7.22222 10.3333 6.94444 10.2917 6.66667H6.375C6.33333 6.94444 6.30208 7.22222 6.28125 7.5C6.26042 7.77778 6.25 8.05556 6.25 8.33333C6.25 8.61111 6.26042 8.88889 6.28125 9.16667C6.30208 9.44444 6.33333 9.72222 6.375 10H9.16667V11.6667H6.75C6.91667 12.2639 7.13194 12.8368 7.39583 13.3854C7.65972 13.934 7.97222 14.4583 8.33333 14.9583C8.61111 14.9583 8.88889 14.941 9.16667 14.9062C9.44444 14.8715 9.72222 14.8403 10 14.8125V16.5208C9.72222 16.5486 9.44444 16.5799 9.16667 16.6146C8.88889 16.6493 8.61111 16.6667 8.33333 16.6667ZM1.875 10H4.70833C4.66667 9.72222 4.63542 9.44444 4.61458 9.16667C4.59375 8.88889 4.58333 8.61111 4.58333 8.33333C4.58333 8.05556 4.59375 7.77778 4.61458 7.5C4.63542 7.22222 4.66667 6.94444 4.70833 6.66667H1.875C1.80556 6.94444 1.75347 7.22222 1.71875 7.5C1.68403 7.77778 1.66667 8.05556 1.66667 8.33333C1.66667 8.61111 1.68403 8.88889 1.71875 9.16667C1.75347 9.44444 1.80556 9.72222 1.875 10ZM2.58333 5H5.04167C5.16667 4.48611 5.32292 3.98264 5.51042 3.48958C5.69792 2.99653 5.91667 2.51389 6.16667 2.04167C5.40278 2.29167 4.71528 2.67014 4.10417 3.17708C3.49306 3.68403 2.98611 4.29167 2.58333 5ZM6.16667 14.625C5.91667 14.1528 5.69792 13.6701 5.51042 13.1771C5.32292 12.684 5.16667 12.1806 5.04167 11.6667H2.58333C2.98611 12.375 3.49306 12.9826 4.10417 13.4896C4.71528 13.9965 5.40278 14.375 6.16667 14.625ZM6.75 5H9.91667C9.75 4.40278 9.53472 3.82986 9.27083 3.28125C9.00694 2.73264 8.69444 2.20833 8.33333 1.70833C7.97222 2.20833 7.65972 2.73264 7.39583 3.28125C7.13194 3.82986 6.91667 4.40278 6.75 5ZM11.625 5H14.0833C13.6806 4.29167 13.1736 3.68403 12.5625 3.17708C11.9514 2.67014 11.2639 2.29167 10.5 2.04167C10.75 2.51389 10.9688 2.99653 11.1562 3.48958C11.3438 3.98264 11.5 4.48611 11.625 5Z" fill="white"/>
</svg>
