<svg width="600" height="600" viewBox="0 0 600 600" fill="none" xmlns="http://www.w3.org/2000/svg">
<g clip-path="url(#clip0_158_2303)">
<path d="M310.78 499.36C465.166 499.36 590.32 399.202 590.32 275.65C590.32 152.098 465.166 51.9399 310.78 51.9399C156.394 51.9399 31.24 152.098 31.24 275.65C31.24 399.202 156.394 499.36 310.78 499.36Z" stroke="#6B1919" stroke-linecap="round" stroke-linejoin="round"/>
<path d="M300 0C465.685 0 600 134.315 600 300C600 465.685 465.685 600 300 600C134.315 600 0 465.685 0 300C0 134.315 134.315 0 300 0ZM309.64 373.79C308.51 403.91 283.72 428.08 253.33 428.08C243.88 428.08 234.99 425.72 227.16 421.6C228.992 424.139 231.028 426.532 233.245 428.751C231.017 426.542 228.97 424.151 227.13 421.601C209.17 412.151 196.88 393.33 196.88 371.67C196.88 340.56 222.19 315.25 253.3 315.25C259.11 315.25 264.68 316.21 269.95 317.86V265.61C269.953 265.61 269.957 265.61 269.96 265.61V249.33C264.51 248.59 258.97 248.12 253.31 248.12C185.19 248.12 129.78 303.541 129.78 371.65C129.78 413.39 150.61 450.34 182.405 472.708C182.437 472.742 182.468 472.777 182.5 472.811C202.56 486.9 226.97 495.2 253.29 495.2C321.41 495.2 376.82 439.78 376.82 371.67L376.84 371.66V235.271C403.16 254.16 435.41 265.3 470.21 265.3V213.938C470.213 213.938 470.216 213.94 470.22 213.94V198.18C451.47 198.18 434.01 192.61 419.37 183.061C420.62 184.495 421.913 185.899 423.247 187.269C421.91 185.909 420.613 184.509 419.36 183.07C398.44 169.432 383.31 147.648 378.496 122.249L378.521 122.25L378.44 121.85C377.42 116.32 376.86 110.64 376.86 104.82H309.75L309.64 373.79Z" fill="white"/>
</g>
<defs>
<clipPath id="clip0_158_2303">
<rect width="600" height="600" fill="white"/>
</clipPath>
</defs>
</svg>
