<?xml version="1.0" encoding="UTF-8"?><svg id="a" xmlns="http://www.w3.org/2000/svg" width="1716.73" height="1228.96" viewBox="0 0 1716.73 1228.96"><g isolation="isolate"><g isolation="isolate"><g isolation="isolate"><g isolation="isolate"><path d="M100.49,1108.61v-16.36h64.97v3.74c0,19.32-4.99,35.76-14.96,49.31-13.87,18.7-33.19,28.04-57.96,28.04-23.06,0-42.3-7.75-57.72-23.25-15.42-15.5-23.14-34.62-23.14-57.37s7.75-41.87,23.25-57.37c15.5-15.5,34.86-23.25,58.07-23.25,18.38,0,34.27,5.14,47.67,15.42,6.85,5.3,12.85,11.45,17.99,18.46l-12.85,11.69c-4.52-6.39-9.43-11.76-14.72-16.12-10.75-8.72-23.37-13.09-37.86-13.09-18.54,0-33.81,6.16-45.81,18.46-12,12.31-17.99,27.66-17.99,46.04,0,13.4,3.27,25.12,9.82,35.17,6.54,10.05,14.53,17.38,23.95,21.97,9.42,4.6,19.28,6.89,29.56,6.89s19.67-2.37,28.16-7.13c8.49-4.75,14.99-11.1,19.51-19.05,3.89-6.7,6-14.1,6.31-22.2h-46.27Z"/><path d="M206.59,1014.66h25.01c16.83,0,29.45,2.88,37.86,8.65,11.37,7.64,17.06,19.16,17.06,34.59,0,12-3.62,21.97-10.87,29.91-7.25,7.95-16.71,12.31-28.39,13.09l49.54,69.64h-21.03l-47.44-68.24h-4.44v68.24h-17.29v-155.88ZM223.88,1031.02v55.85h10.98c10.75,0,19.16-2.49,25.24-7.48,6.08-4.98,9.11-12,9.11-21.03,0-10.59-4.13-18.23-12.39-22.9-5.3-2.96-12.78-4.44-22.44-4.44h-10.52Z"/><path d="M414.12,1014.66v16.36h-63.57v46.27h61.7v16.36h-61.7v60.53h63.57v16.36h-80.86v-155.88h80.86Z"/><path d="M536.11,1014.66v16.36h-63.57v46.27h61.7v16.36h-61.7v60.53h63.57v16.36h-80.86v-155.88h80.86Z"/><path d="M594.53,1170.54h-17.29v-162.42l121.52,127.37v-120.82h17.29v162.89l-121.52-127.37v120.36Z"/><path d="M936.66,1103l12.62,10.52c-5.14,7.01-11.77,14.72-19.86,23.14l26.17,33.89h-21.5l-16.83-21.73c-7.17,7.17-15.23,13.05-24.19,17.64-8.96,4.59-17.64,6.89-26.06,6.89-12.78,0-23.49-4.13-32.13-12.39-8.65-8.26-12.97-18.54-12.97-30.85s4.67-22.9,14.02-32.25c4.83-4.83,13.55-11.29,26.17-19.4-10.28-13.24-15.42-24.38-15.42-33.42s3-16.59,9-23.14c6-6.54,14.29-9.82,24.89-9.82s18.35,3.12,24.19,9.35c5.84,6.23,8.76,13.55,8.76,21.97,0,10.44-4.83,19.86-14.49,28.28-1.09.94-2.53,2.07-4.32,3.39-1.79,1.33-4.56,3.55-8.3,6.66l32.48,41.83c7.95-8.41,13.87-15.27,17.76-20.57ZM906.75,1135.95l-34.59-44.64c-8.26,5.14-15.58,10.52-21.97,16.13-7.33,6.54-10.98,14.02-10.98,22.43,0,7.79,2.61,14.34,7.83,19.63,5.22,5.3,11.8,7.95,19.75,7.95,11.68,0,25.01-7.17,39.96-21.5ZM869.35,1059.53l7.01,9.58,10.28-7.95c7.01-5.61,10.52-11.6,10.52-17.99,0-5.14-1.68-9.11-5.02-11.92-3.35-2.8-7.29-4.21-11.8-4.21-4.83,0-8.92,1.64-12.27,4.91-3.35,3.27-5.02,7.33-5.02,12.15,0,4.52,2.1,9.66,6.31,15.42Z"/><path d="M1032.94,1014.66h19.16l41.13,116.85,48.84-124.79,46.27,124.79,45.57-116.85h19.16l-65.44,164.06-45.81-124.8-49.08,124.8-59.83-164.06Z"/><path d="M1301.69,1014.66v63.33h79.93v-63.33h17.29v155.88h-17.29v-76.19h-79.93v76.19h-17.29v-155.88h17.29Z"/><path d="M1448.45,1014.66h17.29v155.88h-17.29v-155.88Z"/><path d="M1591.47,1031.02h-37.86v139.52h-17.29v-139.52h-37.86v-16.36h93.01v16.36Z"/><path d="M1705.05,1014.66v16.36h-63.57v46.27h61.7v16.36h-61.7v60.53h63.57v16.36h-80.86v-155.88h80.86Z"/></g></g></g></g><rect x="854.69" width="80.29" height="467.76"/><path d="M424.23,857.6s4.26-11.78,14.17-29.85c23.93-43.64,69.58-123.94,102.8-163.94,37.5-45.14,107.63-112.95,172.06-159.46,74.39-53.69,141.16-83.1,141.16-83.1l80.56-3.35v54.71c-62.85,19.59-114.37,42.12-153.14,61.33-44.24,21.94-100.49,50.2-164.4,102.42-37.24,30.41-65.71,59.69-85.52,81.85-17.97,21.67-35.96,43.37-53.93,65.05l-53.69,74.32h-.07v.02Z"/><path d="M424.23,857.6s3.38-31.62,11.84-67.88c11.11-47.85,44.04-132.72,64.29-171.06,0,0,20.23-43.94,41.63-77.57,14.15-22.19,41.82-71.83,69.21-107.14,53.44-68.86,79.65-83.78,79.65-83.78l75.05-2.38v27.46s-80.06,56.85-168.89,159.46c-31.8,36.75-64.73,81.82-92.27,131.97-24.86,45.25-69.96,158.09-69.96,158.09,0,0-9.4,24.27-10.45,32.79l-.14.08h.03v-.03h.01Z" fill="#00a84f"/><path d="M425.04,405.15L425.15,0h185.9v310.94l-22.59,35.07-14.79,25.67s-47.88,11.39-56.05,14.26l-92.62,19.24h.03v-.03h.01Z"/><path d="M424.29,828.93l.93-517.99h185.86s-76.65,117.32-126.81,251.95c-42.59,114.26-55.38,244.05-59.8,292.86-.29,3.27-.17,1.45-.17,1.45v-28.27h-.01Z"/><polygon points="690.7 368.58 690.7 0 765.93 0 765.93 371.39 690.7 368.58" fill="#00a84f"/><rect x="1019.24" width="70.28" height="595.9"/><path d="M424.23,857.72s49.97-59.11,85.81-91.25c33.91-30.38,117.06-97.82,173.51-127.45,56.48-29.66,114.43-52.94,162.09-66.34,131.18-36.86,169.99-34.16,169.99-34.16l73.87-2.63v73.28s-71.29-5.79-187.03,10.47c-79.6,11.2-204.24,49.3-288.46,94.52-32.63,17.53-74.35,44.29-85.2,52.57-5.93,4.51-16.46,12.41-16.46,12.41l-1.04.86s-37.88,33.07-51.2,45.2l-35.82,32.52h-.06Z"/><rect x="1156.68" width="107.28" height="749.63"/><path d="M1263.96,878.18s-39.69-26.01-93.97-46.57c-54.28-20.56-122.93-36.96-150.92-43.19-88.72-19.7-191.12-20.91-191.12-20.91,0,0-155.72,4.34-230.22,24.22-26.97,7.18-85.19,24.89-126.38,42.15-25.35,10.6-47.13,23.95-47.13,23.95v-.17s-.08.21.93-.67c8.14-6.9,48.17-39.91,94.4-66.94,7.44-4.34,58.77-29.55,65.67-32.68,35.49-16.05,83.34-40.92,154.5-59.87,72.45-19.29,141.44-28.45,182.26-28.45,64.5,0,149.32,1.02,221.79,13.67,29.78,5.22,120.17-12.34,120.17-12.34v172.87"/></svg>