<?xml version="1.0" encoding="UTF-8"?><svg id="a" xmlns="http://www.w3.org/2000/svg" width="1217.31" height="867.95" viewBox="0 0 1217.31 867.95"><g isolation="isolate"><g isolation="isolate"><g isolation="isolate"><g isolation="isolate"><path d="M63.84,817.55v-11.76h46.7v2.69c0,13.89-3.59,25.7-10.75,35.45-9.97,13.44-23.86,20.16-41.66,20.16-16.58,0-30.41-5.57-41.5-16.72-11.09-11.14-16.63-24.89-16.63-41.24s5.57-30.1,16.72-41.24c11.14-11.14,25.06-16.72,41.75-16.72,13.21,0,24.64,3.7,34.27,11.09,4.93,3.81,9.24,8.23,12.94,13.27l-9.24,8.4c-3.25-4.59-6.78-8.46-10.58-11.59-7.73-6.27-16.8-9.41-27.22-9.41-13.33,0-24.31,4.43-32.93,13.27-8.63,8.85-12.94,19.88-12.94,33.1,0,9.63,2.35,18.06,7.06,25.28,4.7,7.22,10.44,12.49,17.22,15.79,6.78,3.3,13.86,4.96,21.25,4.96s14.14-1.71,20.24-5.12c6.1-3.42,10.78-7.98,14.03-13.69,2.8-4.81,4.31-10.14,4.54-15.96h-33.26Z" fill="#fff"/><path d="M140.11,750.01h17.98c12.1,0,21.17,2.07,27.22,6.22,8.17,5.49,12.26,13.78,12.26,24.86,0,8.62-2.6,15.79-7.81,21.5s-12.01,8.85-20.41,9.41l35.62,50.06h-15.12l-34.1-49.06h-3.19v49.06h-12.43v-112.06ZM152.54,761.77v40.15h7.9c7.73,0,13.78-1.79,18.14-5.38,4.37-3.58,6.55-8.62,6.55-15.12,0-7.62-2.97-13.1-8.9-16.46-3.81-2.13-9.18-3.19-16.13-3.19h-7.56Z" fill="#fff"/><path d="M289.3,750.01v11.76h-45.7v33.26h44.35v11.76h-44.35v43.51h45.7v11.76h-58.13v-112.06h58.13Z" fill="#fff"/><path d="M376.99,750.01v11.76h-45.7v33.26h44.35v11.76h-44.35v43.51h45.7v11.76h-58.13v-112.06h58.13Z" fill="#fff"/><path d="M418.99,862.07h-12.43v-116.76l87.36,91.56v-86.86h12.43v117.1l-87.36-91.56v86.52Z" fill="#fff"/><path d="M664.94,813.52l9.07,7.56c-3.7,5.04-8.46,10.58-14.28,16.63l18.82,24.36h-15.46l-12.1-15.62c-5.15,5.15-10.95,9.38-17.39,12.68-6.44,3.3-12.68,4.96-18.73,4.96-9.18,0-16.88-2.97-23.1-8.9-6.22-5.94-9.32-13.33-9.32-22.18s3.36-16.46,10.08-23.18c3.47-3.47,9.74-8.12,18.81-13.94-7.39-9.52-11.09-17.53-11.09-24.02s2.16-11.93,6.47-16.63c4.31-4.7,10.27-7.06,17.89-7.06s13.19,2.24,17.39,6.72c4.2,4.48,6.3,9.74,6.3,15.79,0,7.5-3.47,14.28-10.42,20.33-.78.67-1.82,1.49-3.11,2.44-1.29.95-3.28,2.55-5.96,4.79l23.35,30.07c5.71-6.05,9.97-10.98,12.77-14.78ZM643.43,837.21l-24.86-32.09c-5.94,3.7-11.2,7.56-15.79,11.59-5.27,4.7-7.9,10.08-7.9,16.13,0,5.6,1.87,10.31,5.63,14.11,3.75,3.81,8.48,5.71,14.2,5.71,8.4,0,17.98-5.15,28.73-15.46ZM616.55,782.27l5.04,6.89,7.39-5.71c5.04-4.03,7.56-8.34,7.56-12.94,0-3.7-1.21-6.55-3.61-8.57-2.41-2.02-5.24-3.02-8.48-3.02-3.47,0-6.41,1.18-8.82,3.53-2.41,2.35-3.61,5.27-3.61,8.74,0,3.25,1.51,6.95,4.54,11.09Z" fill="#fff"/><path d="M734.15,750.01h13.78l29.57,84,35.11-89.71,33.26,89.71,32.76-84h13.78l-47.04,117.94-32.93-89.71-35.28,89.71-43.01-117.94Z" fill="#fff"/><path d="M927.35,750.01v45.53h57.46v-45.53h12.43v112.06h-12.43v-54.77h-57.46v54.77h-12.43v-112.06h12.43Z" fill="#fff"/><path d="M1032.85,750.01h12.43v112.06h-12.43v-112.06Z" fill="#fff"/><path d="M1135.66,761.77h-27.22v100.3h-12.43v-100.3h-27.22v-11.76h66.86v11.76Z" fill="#fff"/><path d="M1217.31,750.01v11.76h-45.7v33.26h44.35v11.76h-44.35v43.51h45.7v11.76h-58.13v-112.06h58.13Z" fill="#fff"/></g></g></g></g><rect x="629.57" y="0" width="57.72" height="336.26" fill="#fff"/><path d="M320.12,616.51s3.06-8.47,10.19-21.46c17.2-31.37,50.02-89.1,73.9-117.85,26.96-32.45,77.37-81.2,123.69-114.63,53.48-38.6,101.48-59.74,101.48-59.74l57.91-2.41v39.33c-45.18,14.08-82.22,30.28-110.09,44.09-31.8,15.77-72.24,36.09-118.18,73.63-26.77,21.86-47.24,42.91-61.48,58.84-12.92,15.58-25.85,31.18-38.77,46.76l-38.6,53.43h-.05Z" fill="#fff"/><path d="M320.12,616.51s2.43-22.73,8.51-48.8c7.99-34.4,31.66-95.41,46.22-122.97,0,0,14.54-31.59,29.93-55.76,10.17-15.95,30.06-51.64,49.75-77.02,38.42-49.5,57.26-60.23,57.26-60.23l53.95-1.71v19.74s-57.55,40.87-121.41,114.63c-22.86,26.42-46.53,58.82-66.33,94.87-17.87,32.53-50.29,113.65-50.29,113.65,0,0-6.76,17.45-7.51,23.57l-.1.06h.02v-.02h0Z" fill="#00a84f"/><path d="M320.7,291.25l.08-291.25h133.64v223.53l-16.24,25.21-10.63,18.45s-34.42,8.19-40.29,10.25l-66.58,13.83h.02v-.02h0Z" fill="#fff"/><path d="M320.16,595.9l.67-372.37h133.61s-55.1,84.34-91.16,181.12c-30.62,82.14-39.81,175.44-42.99,210.53-.21,2.35-.12,1.04-.12,1.04v-20.32h-.01Z" fill="#fff"/><polygon points="511.68 264.96 511.68 0 565.76 0 565.76 266.97 511.68 264.96" fill="#00a84f"/><rect x="747.86" y="0" width="50.52" height="428.38" fill="#fff"/><path d="M320.12,616.59s35.92-42.49,61.69-65.6c24.38-21.84,84.15-70.32,124.73-91.62,40.6-21.32,82.26-38.06,116.52-47.69,94.3-26.5,122.2-24.56,122.2-24.56l53.1-1.89v52.68s-51.25-4.16-134.45,7.53c-57.22,8.05-146.82,35.44-207.37,67.95-23.46,12.6-53.45,31.84-61.25,37.79-4.26,3.24-11.83,8.92-11.83,8.92l-.75.62s-27.23,23.77-36.81,32.49l-25.75,23.38h-.03Z" fill="#fff"/><rect x="846.66" y="0" width="77.12" height="538.89" fill="#fff"/><path d="M923.78,631.29s-28.53-18.7-67.55-33.48c-39.02-14.78-88.37-26.57-108.49-31.05-63.78-14.16-137.39-15.03-137.39-15.03,0,0-111.94,3.12-165.5,17.41-19.39,5.16-61.24,17.89-90.85,30.3-18.22,7.62-33.88,17.22-33.88,17.22v-.12s-.06.15.67-.48c5.85-4.96,34.63-28.69,67.86-48.12,5.35-3.12,42.25-21.24,47.21-23.49,25.51-11.54,59.91-29.42,111.07-43.04,52.08-13.87,101.68-20.45,131.02-20.45,46.37,0,107.34.73,159.44,9.83,21.41,3.75,86.39-8.87,86.39-8.87v149.38" fill="#fff"/></svg>