<?xml version="1.0" encoding="UTF-8"?><svg id="a" xmlns="http://www.w3.org/2000/svg" width="1555.97" height="303.83" viewBox="0 0 1555.97 303.83"><g isolation="isolate"><g isolation="isolate"><g isolation="isolate"><g isolation="isolate"><g isolation="isolate"><path d="M400.33,123.62v-11.68h46.39v2.67c0,13.79-3.56,25.53-10.68,35.21-9.9,13.35-23.69,20.02-41.38,20.02-16.46,0-30.2-5.53-41.21-16.6-11.01-11.07-16.52-24.72-16.52-40.96s5.53-29.89,16.6-40.96,24.89-16.6,41.46-16.6c13.12,0,24.47,3.67,34.04,11.01,4.89,3.78,9.18,8.18,12.85,13.18l-9.18,8.34c-3.23-4.56-6.73-8.4-10.51-11.51-7.68-6.23-16.69-9.34-27.03-9.34-13.24,0-24.14,4.4-32.7,13.18-8.57,8.79-12.85,19.75-12.85,32.87,0,9.57,2.34,17.94,7.01,25.11,4.67,7.17,10.37,12.41,17.1,15.68,6.73,3.28,13.77,4.92,21.11,4.92s14.04-1.69,20.11-5.09c6.06-3.39,10.71-7.93,13.93-13.6,2.78-4.78,4.28-10.07,4.51-15.85h-33.04Z"/><path d="M476.08,56.54h17.85c12.01,0,21.02,2.06,27.03,6.17,8.12,5.45,12.18,13.68,12.18,24.7,0,8.57-2.59,15.69-7.76,21.36-5.17,5.67-11.93,8.79-20.27,9.34l35.37,49.72h-15.02l-33.87-48.72h-3.17v48.72h-12.35V56.54ZM488.43,68.22v39.88h7.84c7.68,0,13.68-1.78,18.02-5.34,4.34-3.56,6.51-8.56,6.51-15.02,0-7.56-2.95-13.01-8.84-16.35-3.78-2.11-9.12-3.17-16.02-3.17h-7.51Z"/><path d="M624.26,56.54v11.68h-45.39v33.04h44.05v11.68h-44.05v43.22h45.39v11.68h-57.73V56.54h57.73Z"/><path d="M711.36,56.54v11.68h-45.39v33.04h44.05v11.68h-44.05v43.22h45.39v11.68h-57.73V56.54h57.73Z"/><path d="M753.07,167.84h-12.35V51.87l86.77,90.94V56.54h12.35v116.3l-86.77-90.94v85.93Z"/><path d="M997.35,119.62l9.01,7.51c-3.67,5.01-8.4,10.51-14.18,16.52l18.69,24.19h-15.35l-12.01-15.52c-5.12,5.12-10.87,9.32-17.27,12.6-6.4,3.28-12.6,4.92-18.6,4.92-9.12,0-16.77-2.95-22.94-8.84-6.17-5.9-9.26-13.24-9.26-22.03s3.34-16.35,10.01-23.03c3.45-3.45,9.68-8.06,18.69-13.85-7.34-9.45-11.01-17.41-11.01-23.86s2.14-11.85,6.42-16.52c4.28-4.67,10.2-7.01,17.77-7.01s13.1,2.23,17.27,6.67c4.17,4.45,6.26,9.68,6.26,15.69,0,7.45-3.45,14.18-10.35,20.19-.78.67-1.81,1.48-3.09,2.42-1.28.95-3.25,2.53-5.92,4.75l23.19,29.87c5.67-6.01,9.9-10.9,12.68-14.68ZM975.99,143.14l-24.7-31.87c-5.9,3.67-11.12,7.51-15.69,11.51-5.23,4.67-7.84,10.01-7.84,16.02,0,5.56,1.86,10.24,5.59,14.02,3.73,3.78,8.43,5.67,14.1,5.67,8.34,0,17.85-5.12,28.53-15.35ZM949.29,88.58l5.01,6.84,7.34-5.67c5.01-4,7.51-8.29,7.51-12.85,0-3.67-1.2-6.51-3.59-8.51-2.39-2-5.2-3-8.43-3-3.45,0-6.37,1.17-8.76,3.5-2.39,2.34-3.59,5.23-3.59,8.68,0,3.23,1.5,6.9,4.5,11.01Z"/><path d="M1066.09,56.54h13.68l29.37,83.43,34.87-89.1,33.04,89.1,32.54-83.43h13.68l-46.72,117.14-32.7-89.1-35.04,89.1-42.72-117.14Z"/><path d="M1257.98,56.54v45.22h57.07v-45.22h12.35v111.3h-12.35v-54.4h-57.07v54.4h-12.35V56.54h12.35Z"/><path d="M1362.76,56.54h12.35v111.3h-12.35V56.54Z"/><path d="M1464.88,68.22h-27.03v99.62h-12.35v-99.62h-27.03v-11.68h66.41v11.68Z"/><path d="M1545.97,56.54v11.68h-45.39v33.04h44.05v11.68h-44.05v43.22h45.39v11.68h-57.73V56.54h57.73Z"/></g></g></g></g></g><g isolation="isolate"><g isolation="isolate"><g isolation="isolate"><g isolation="isolate"><g isolation="isolate"><path d="M374.61,213.25v6.44c-1.87-1.87-3.9-3.31-6.09-4.34-2.66-1.21-5.34-1.82-8.05-1.82-5.37,0-9.83,1.88-13.41,5.63-3.57,3.76-5.35,8.37-5.35,13.83,0,5.88,1.95,10.52,5.85,13.93,3.9,3.41,8.23,5.11,12.98,5.11,2.99,0,5.88-.72,8.68-2.17,1.96-.98,3.76-2.29,5.39-3.92v6.44c-4.25,3.03-8.94,4.55-14.07,4.55-6.91,0-12.66-2.31-17.25-6.93-4.6-4.62-6.9-10.31-6.9-17.08s2.32-12.74,6.96-17.36c4.64-4.62,10.47-6.93,17.47-6.93,5.13,0,9.73,1.54,13.79,4.62Z"/><path d="M407.93,231.17v-4.13h5.04v29.05h-5.04v-4.06c-2.52,3.27-5.83,4.9-9.94,4.9s-7.26-1.35-10.01-4.06c-2.75-2.71-4.13-6.49-4.13-11.34s1.37-8.48,4.1-11.17,6.08-4.03,10.04-4.03c4.2,0,7.51,1.61,9.94,4.83ZM398.55,230.82c-2.66,0-4.91.94-6.76,2.83-1.84,1.89-2.76,4.51-2.76,7.88s.85,5.84,2.55,7.88c1.7,2.03,4.03,3.04,6.97,3.04s5.28-1.05,7.03-3.15,2.62-4.67,2.62-7.7c0-3.45-.98-6.11-2.94-7.98-1.96-1.87-4.2-2.8-6.72-2.8Z"/><path d="M430.33,252.03v20.16h-5.04v-45.15h5.04v4.06c2.57-3.17,5.88-4.76,9.94-4.76,4.34,0,7.78,1.53,10.32,4.58,2.54,3.06,3.81,6.66,3.81,10.82s-1.26,7.78-3.78,10.74c-2.52,2.96-5.9,4.45-10.15,4.45s-7.63-1.63-10.15-4.9ZM439.78,252.45c2.85,0,5.13-1.04,6.86-3.12,1.73-2.08,2.59-4.61,2.59-7.59,0-3.36-.96-6.02-2.87-7.98-1.91-1.96-4.13-2.94-6.65-2.94s-4.76.98-6.72,2.94-2.94,4.6-2.94,7.91c0,3.03.9,5.59,2.69,7.67,1.8,2.08,4.14,3.12,7.04,3.12Z"/><path d="M475.13,231.66h-5.04v24.43h-5.04v-24.43h-3.08v-4.62h3.08v-10.5h5.04v10.5h5.04v4.62Z"/><path d="M487.73,227.04v16.94c0,2.94.47,5.02,1.4,6.23,1.17,1.49,2.87,2.24,5.11,2.24s3.94-.75,5.11-2.24c.93-1.21,1.4-3.29,1.4-6.23v-16.94h5.04v17.5c0,3.92-.89,6.84-2.66,8.75-2.29,2.43-5.25,3.64-8.89,3.64s-6.6-1.21-8.89-3.64c-1.77-1.91-2.66-4.83-2.66-8.75v-17.5h5.04Z"/><path d="M518.11,256.09v-29.05h5.04v3.15c1.63-2.57,3.83-3.85,6.58-3.85,1.4,0,2.89.4,4.48,1.19l-2.38,4.55c-.93-.65-1.91-.98-2.94-.98-1.77,0-3.13.61-4.06,1.82-1.12,1.49-1.68,4.11-1.68,7.84v15.33h-5.04Z"/><path d="M541.63,218.57c-.7-.7-1.05-1.54-1.05-2.52s.35-1.82,1.05-2.52c.7-.7,1.54-1.05,2.52-1.05s1.82.35,2.52,1.05c.7.7,1.05,1.54,1.05,2.52s-.35,1.82-1.05,2.52c-.7.7-1.54,1.05-2.52,1.05s-1.82-.35-2.52-1.05ZM541.63,227.04h5.04v29.05h-5.04v-29.05Z"/><path d="M558.99,256.09v-29.05h5.04v3.36c2.05-2.71,4.83-4.06,8.33-4.06,3.73,0,6.51,1.33,8.33,3.99,1.12,1.63,1.68,4.22,1.68,7.77v17.99h-5.04v-17.85c0-2.38-.44-4.15-1.33-5.32-1.07-1.4-2.66-2.1-4.76-2.1s-3.85.75-5.11,2.24c-1.4,1.63-2.1,4.25-2.1,7.84v15.19h-5.04Z"/><path d="M616.94,231.17v-4.13h5.04v28.35c0,5.09-.93,8.89-2.8,11.41-2.66,3.59-6.53,5.39-11.62,5.39-4.29,0-7.75-1.31-10.36-3.92-2.52-2.52-3.78-5.65-3.78-9.38h4.97c0,2.33.75,4.34,2.24,6.02,1.68,1.87,4.01,2.8,7,2.8,3.5,0,6.07-1.35,7.7-4.06,1.07-1.73,1.61-4.2,1.61-7.42v-4.2c-2.52,3.27-5.83,4.9-9.94,4.9s-7.33-1.31-9.94-3.92c-2.8-2.8-4.2-6.63-4.2-11.48s1.4-8.47,4.2-11.27c2.71-2.61,6.02-3.92,9.94-3.92,4.15,0,7.47,1.61,9.94,4.83ZM607.56,230.82c-2.57,0-4.76.91-6.58,2.73-1.96,2.01-2.94,4.67-2.94,7.98,0,3.69,1.1,6.53,3.29,8.54,1.73,1.59,3.8,2.38,6.23,2.38,2.61,0,4.74-.82,6.37-2.45,2.19-2.1,3.29-4.9,3.29-8.4s-1.03-6.23-3.08-8.19c-1.73-1.73-3.92-2.59-6.58-2.59Z"/><path d="M654.67,209.4h5.18v46.69h-5.18v-46.69Z"/><path d="M673.43,256.09v-29.05h5.04v3.08c1.73-2.52,4.13-3.78,7.21-3.78,3.5,0,6.14,1.56,7.91,4.69,2.01-3.13,4.92-4.69,8.75-4.69,6.3,0,9.45,3.78,9.45,11.34v18.41h-5.04v-17.64c0-1.4-.08-2.58-.25-3.54-.16-.96-.65-1.88-1.47-2.77-.82-.89-1.97-1.33-3.47-1.33-4.29,0-6.44,3.03-6.44,9.1v16.17h-5.04v-17.22c0-5.37-1.75-8.05-5.25-8.05-4.25,0-6.37,3.15-6.37,9.45v15.82h-5.04Z"/><path d="M746.44,231.17v-4.13h5.04v29.05h-5.04v-4.06c-2.52,3.27-5.83,4.9-9.94,4.9s-7.26-1.35-10.01-4.06c-2.75-2.71-4.13-6.49-4.13-11.34s1.37-8.48,4.1-11.17,6.08-4.03,10.04-4.03c4.2,0,7.51,1.61,9.94,4.83ZM737.06,230.82c-2.66,0-4.91.94-6.76,2.83-1.84,1.89-2.76,4.51-2.76,7.88s.85,5.84,2.55,7.88c1.7,2.03,4.03,3.04,6.97,3.04s5.28-1.05,7.03-3.15,2.62-4.67,2.62-7.7c0-3.45-.98-6.11-2.94-7.98-1.96-1.87-4.2-2.8-6.72-2.8Z"/><path d="M786.06,231.17v-4.13h5.04v28.35c0,5.09-.93,8.89-2.8,11.41-2.66,3.59-6.53,5.39-11.62,5.39-4.29,0-7.75-1.31-10.36-3.92-2.52-2.52-3.78-5.65-3.78-9.38h4.97c0,2.33.75,4.34,2.24,6.02,1.68,1.87,4.01,2.8,7,2.8,3.5,0,6.07-1.35,7.7-4.06,1.07-1.73,1.61-4.2,1.61-7.42v-4.2c-2.52,3.27-5.83,4.9-9.94,4.9s-7.33-1.31-9.94-3.92c-2.8-2.8-4.2-6.63-4.2-11.48s1.4-8.47,4.2-11.27c2.71-2.61,6.02-3.92,9.94-3.92,4.15,0,7.47,1.61,9.94,4.83ZM776.68,230.82c-2.57,0-4.76.91-6.58,2.73-1.96,2.01-2.94,4.67-2.94,7.98,0,3.69,1.1,6.53,3.29,8.54,1.73,1.59,3.8,2.38,6.23,2.38,2.61,0,4.74-.82,6.37-2.45,2.19-2.1,3.29-4.9,3.29-8.4s-1.03-6.23-3.08-8.19c-1.73-1.73-3.92-2.59-6.58-2.59Z"/><path d="M824.98,246.36l4.2,2.31c-.98,1.87-2.17,3.43-3.57,4.69-2.66,2.38-5.88,3.57-9.66,3.57s-7.29-1.27-10.12-3.81c-2.82-2.54-4.23-6.33-4.23-11.38,0-4.43,1.27-8.11,3.81-11.03,2.54-2.92,5.96-4.38,10.25-4.38,4.85,0,8.52,1.77,10.99,5.32,1.96,2.8,2.87,6.44,2.73,10.92h-22.61c.05,2.94.96,5.32,2.73,7.14,1.77,1.82,3.94,2.73,6.51,2.73,2.29,0,4.27-.7,5.95-2.1,1.31-1.12,2.31-2.45,3.01-3.99ZM807.13,238.38h17.08c-.42-2.29-1.41-4.12-2.97-5.5-1.56-1.38-3.42-2.06-5.57-2.06s-3.95.71-5.56,2.13c-1.61,1.42-2.6,3.23-2.97,5.42Z"/><path d="M855.99,231.59l-4.13,2.17c-.79-1.96-2.15-2.94-4.06-2.94-.98,0-1.81.28-2.48.84-.68.56-1.02,1.38-1.02,2.45,0,.98.31,1.72.95,2.21.63.49,1.88,1.13,3.74,1.93,3.69,1.54,6.11,3.03,7.28,4.48,1.03,1.26,1.54,2.82,1.54,4.69,0,2.94-.95,5.26-2.83,6.96-1.89,1.7-4.28,2.55-7.18,2.55-.56,0-1.17-.06-1.82-.17-.65-.12-1.55-.37-2.7-.77-1.14-.4-2.23-1.15-3.25-2.27-1.03-1.12-1.82-2.52-2.38-4.2l4.34-1.82c1.17,3.17,3.13,4.76,5.88,4.76,1.54,0,2.72-.47,3.53-1.4.82-.93,1.23-2.01,1.23-3.22,0-.65-.1-1.23-.31-1.71-.21-.49-.56-.92-1.05-1.29-.49-.37-.96-.68-1.4-.91-.44-.23-1.08-.54-1.92-.91-3.73-1.63-6.09-3.06-7.07-4.27-.89-1.12-1.33-2.54-1.33-4.27,0-2.52.78-4.5,2.34-5.95,1.56-1.45,3.6-2.17,6.12-2.17,3.69,0,6.35,1.75,7.98,5.25Z"/><path d="M911.04,252.59c-2.92,2.89-6.59,4.34-11.03,4.34s-8.11-1.45-11.02-4.34c-2.92-2.89-4.38-6.53-4.38-10.92s1.46-8.1,4.38-10.99c2.92-2.89,6.59-4.34,11.02-4.34s8.11,1.45,11.03,4.34c2.92,2.89,4.38,6.56,4.38,10.99s-1.46,8.03-4.38,10.92ZM907.26,233.69c-1.98-1.91-4.4-2.87-7.25-2.87s-5.26.97-7.25,2.9c-1.98,1.94-2.97,4.58-2.97,7.95s1,6,3.01,7.91c2.01,1.91,4.41,2.87,7.21,2.87s5.2-.96,7.21-2.87c2.01-1.91,3.01-4.55,3.01-7.91s-.99-6.07-2.97-7.98Z"/><path d="M938.24,231.66h-7.14v24.43h-5.04v-24.43h-2.8v-4.62h2.8v-12.67c0-3.87.93-6.6,2.8-8.19,1.49-1.26,3.43-1.89,5.81-1.89,1.26,0,2.45.21,3.57.63v4.9c-1.03-.42-2.12-.63-3.29-.63-1.54,0-2.61.51-3.22,1.54-.42.7-.63,2.1-.63,4.2v12.11h7.14v4.62Z"/><path d="M965.88,209.4h5.18v41.79h12.88v4.9h-18.06v-46.69Z"/><path d="M1014.74,231.17v-4.13h5.04v29.05h-5.04v-4.06c-2.52,3.27-5.83,4.9-9.94,4.9s-7.26-1.35-10.01-4.06c-2.75-2.71-4.13-6.49-4.13-11.34s1.36-8.48,4.09-11.17c2.73-2.68,6.08-4.03,10.04-4.03,4.2,0,7.51,1.61,9.94,4.83ZM1005.36,230.82c-2.66,0-4.91.94-6.75,2.83-1.84,1.89-2.76,4.51-2.76,7.88s.85,5.84,2.55,7.88c1.7,2.03,4.03,3.04,6.96,3.04s5.29-1.05,7.04-3.15,2.62-4.67,2.62-7.7c0-3.45-.98-6.11-2.94-7.98-1.96-1.87-4.2-2.8-6.72-2.8Z"/><path d="M1048.2,231.59l-4.13,2.17c-.79-1.96-2.15-2.94-4.06-2.94-.98,0-1.81.28-2.49.84-.68.56-1.01,1.38-1.01,2.45,0,.98.32,1.72.95,2.21.63.49,1.88,1.13,3.75,1.93,3.69,1.54,6.11,3.03,7.28,4.48,1.03,1.26,1.54,2.82,1.54,4.69,0,2.94-.94,5.26-2.83,6.96-1.89,1.7-4.28,2.55-7.17,2.55-.56,0-1.17-.06-1.82-.17-.65-.12-1.55-.37-2.69-.77-1.14-.4-2.23-1.15-3.25-2.27-1.03-1.12-1.82-2.52-2.38-4.2l4.34-1.82c1.17,3.17,3.13,4.76,5.88,4.76,1.54,0,2.72-.47,3.54-1.4.82-.93,1.22-2.01,1.22-3.22,0-.65-.11-1.23-.32-1.71-.21-.49-.56-.92-1.05-1.29-.49-.37-.96-.68-1.4-.91-.44-.23-1.08-.54-1.93-.91-3.73-1.63-6.09-3.06-7.07-4.27-.89-1.12-1.33-2.54-1.33-4.27,0-2.52.78-4.5,2.34-5.95,1.56-1.45,3.61-2.17,6.12-2.17,3.69,0,6.35,1.75,7.98,5.25Z"/><path d="M1081.8,231.17v-4.13h5.04v29.05h-5.04v-4.06c-2.52,3.27-5.83,4.9-9.94,4.9s-7.26-1.35-10.01-4.06c-2.75-2.71-4.13-6.49-4.13-11.34s1.36-8.48,4.09-11.17c2.73-2.68,6.08-4.03,10.04-4.03,4.2,0,7.51,1.61,9.94,4.83ZM1072.42,230.82c-2.66,0-4.91.94-6.75,2.83-1.84,1.89-2.76,4.51-2.76,7.88s.85,5.84,2.55,7.88c1.7,2.03,4.03,3.04,6.96,3.04s5.29-1.05,7.04-3.15,2.62-4.67,2.62-7.7c0-3.45-.98-6.11-2.94-7.98-1.96-1.87-4.2-2.8-6.72-2.8Z"/><path d="M1099.16,205.06h5.04v51.03h-5.04v-51.03Z"/><path d="M1116.52,205.06h5.04v51.03h-5.04v-51.03Z"/><path d="M1133.88,218.57c-.7-.7-1.05-1.54-1.05-2.52s.35-1.82,1.05-2.52c.7-.7,1.54-1.05,2.52-1.05s1.82.35,2.52,1.05c.7.7,1.05,1.54,1.05,2.52s-.35,1.82-1.05,2.52c-.7.7-1.54,1.05-2.52,1.05s-1.82-.35-2.52-1.05ZM1133.88,227.04h5.04v29.05h-5.04v-29.05Z"/><path d="M1173.5,231.17v-4.13h5.04v29.05h-5.04v-4.06c-2.52,3.27-5.83,4.9-9.94,4.9s-7.26-1.35-10.01-4.06c-2.75-2.71-4.13-6.49-4.13-11.34s1.36-8.48,4.09-11.17c2.73-2.68,6.08-4.03,10.04-4.03,4.2,0,7.51,1.61,9.94,4.83ZM1164.12,230.82c-2.66,0-4.91.94-6.75,2.83-1.84,1.89-2.76,4.51-2.76,7.88s.85,5.84,2.55,7.88c1.7,2.03,4.03,3.04,6.96,3.04s5.29-1.05,7.04-3.15,2.62-4.67,2.62-7.7c0-3.45-.98-6.11-2.94-7.98-1.96-1.87-4.2-2.8-6.72-2.8Z"/><path d="M1190.86,256.09v-29.05h5.04v3.36c2.05-2.71,4.83-4.06,8.33-4.06,3.73,0,6.51,1.33,8.33,3.99,1.12,1.63,1.68,4.22,1.68,7.77v17.99h-5.04v-17.85c0-2.38-.44-4.15-1.33-5.32-1.07-1.4-2.66-2.1-4.76-2.1s-3.85.75-5.11,2.24c-1.4,1.63-2.1,4.25-2.1,7.84v15.19h-5.04Z"/><path d="M1271.15,209.4v4.9h-19.04v13.86h18.48v4.9h-18.48v18.13h19.04v4.9h-24.22v-46.69h24.22Z"/><path d="M1278.01,256.09l12.39-15.54-10.57-13.51h6.16l7.49,9.87,7.63-9.87h6.16l-10.64,13.58,12.04,15.47h-6.16l-9.17-11.83-9.17,11.83h-6.16Z"/><path d="M1339.54,229.14v6.02c-2.29-2.89-5.32-4.34-9.1-4.34-2.85,0-5.27.97-7.28,2.9-2.01,1.94-3.01,4.58-3.01,7.95s1,6,3.01,7.91c2.01,1.91,4.41,2.87,7.21,2.87,3.73,0,6.86-1.52,9.38-4.55v6.02c-2.75,2.01-5.83,3.01-9.24,3.01-4.53,0-8.25-1.43-11.17-4.3-2.92-2.87-4.38-6.5-4.38-10.88s1.47-8.11,4.41-11.03c2.94-2.92,6.65-4.38,11.13-4.38,3.36,0,6.37.93,9.03,2.8Z"/><path d="M1371.8,246.36l4.2,2.31c-.98,1.87-2.17,3.43-3.57,4.69-2.66,2.38-5.88,3.57-9.66,3.57s-7.29-1.27-10.12-3.81c-2.82-2.54-4.23-6.33-4.23-11.38,0-4.43,1.27-8.11,3.81-11.03,2.54-2.92,5.96-4.38,10.25-4.38,4.85,0,8.52,1.77,10.99,5.32,1.96,2.8,2.87,6.44,2.73,10.92h-22.61c.05,2.94.96,5.32,2.73,7.14s3.94,2.73,6.51,2.73c2.29,0,4.27-.7,5.95-2.1,1.31-1.12,2.31-2.45,3.01-3.99ZM1353.95,238.38h17.08c-.42-2.29-1.41-4.12-2.97-5.5-1.56-1.38-3.42-2.06-5.57-2.06s-3.96.71-5.56,2.13c-1.61,1.42-2.6,3.23-2.98,5.42Z"/><path d="M1386.71,205.06h5.04v51.03h-5.04v-51.03Z"/><path d="M1404.07,205.06h5.04v51.03h-5.04v-51.03Z"/><path d="M1442.99,246.36l4.2,2.31c-.98,1.87-2.17,3.43-3.57,4.69-2.66,2.38-5.88,3.57-9.66,3.57s-7.29-1.27-10.12-3.81c-2.82-2.54-4.23-6.33-4.23-11.38,0-4.43,1.27-8.11,3.81-11.03,2.54-2.92,5.96-4.38,10.25-4.38,4.85,0,8.52,1.77,10.99,5.32,1.96,2.8,2.87,6.44,2.73,10.92h-22.61c.05,2.94.96,5.32,2.73,7.14s3.94,2.73,6.51,2.73c2.29,0,4.27-.7,5.95-2.1,1.31-1.12,2.31-2.45,3.01-3.99ZM1425.14,238.38h17.08c-.42-2.29-1.41-4.12-2.97-5.5-1.56-1.38-3.42-2.06-5.57-2.06s-3.96.71-5.56,2.13c-1.61,1.42-2.6,3.23-2.98,5.42Z"/><path d="M1457.9,256.09v-29.05h5.04v3.36c2.05-2.71,4.83-4.06,8.33-4.06,3.73,0,6.51,1.33,8.33,3.99,1.12,1.63,1.68,4.22,1.68,7.77v17.99h-5.04v-17.85c0-2.38-.44-4.15-1.33-5.32-1.07-1.4-2.66-2.1-4.76-2.1s-3.85.75-5.11,2.24c-1.4,1.63-2.1,4.25-2.1,7.84v15.19h-5.04Z"/><path d="M1516.35,229.14v6.02c-2.29-2.89-5.32-4.34-9.1-4.34-2.85,0-5.27.97-7.28,2.9-2.01,1.94-3.01,4.58-3.01,7.95s1,6,3.01,7.91c2.01,1.91,4.41,2.87,7.21,2.87,3.73,0,6.86-1.52,9.38-4.55v6.02c-2.75,2.01-5.83,3.01-9.24,3.01-4.53,0-8.25-1.43-11.17-4.3-2.92-2.87-4.38-6.5-4.38-10.88s1.47-8.11,4.41-11.03c2.94-2.92,6.65-4.38,11.13-4.38,3.36,0,6.37.93,9.03,2.8Z"/><path d="M1548.62,246.36l4.2,2.31c-.98,1.87-2.17,3.43-3.57,4.69-2.66,2.38-5.88,3.57-9.66,3.57s-7.29-1.27-10.12-3.81c-2.82-2.54-4.23-6.33-4.23-11.38,0-4.43,1.27-8.11,3.81-11.03,2.54-2.92,5.96-4.38,10.25-4.38,4.85,0,8.52,1.77,10.99,5.32,1.96,2.8,2.87,6.44,2.73,10.92h-22.61c.05,2.94.96,5.32,2.73,7.14s3.94,2.73,6.51,2.73c2.29,0,4.27-.7,5.95-2.1,1.31-1.12,2.31-2.45,3.01-3.99ZM1530.77,238.38h17.08c-.42-2.29-1.41-4.12-2.97-5.5-1.56-1.38-3.42-2.06-5.57-2.06s-3.96.71-5.56,2.13c-1.61,1.42-2.6,3.23-2.98,5.42Z"/></g></g></g></g></g><rect x="148.79" y=".35" width="27.75" height="161.67"/><path d="M.01,296.76s1.47-4.07,4.9-10.32c8.27-15.08,24.05-42.84,35.53-56.66,12.96-15.6,37.2-39.04,59.47-55.11,25.71-18.56,48.79-28.72,48.79-28.72l27.84-1.16v18.91c-21.72,6.77-39.53,14.56-52.93,21.2-15.29,7.58-34.73,17.35-56.82,35.4-12.87,10.51-22.71,20.63-29.56,28.29-6.21,7.49-12.43,14.99-18.64,22.48L.03,296.76H.01Z"/><path d="M.01,296.76s1.17-10.93,4.09-23.46c3.84-16.54,15.22-45.87,22.22-59.12,0,0,6.99-15.19,14.39-26.81,4.89-7.67,14.45-24.83,23.92-37.03,18.47-23.8,27.53-28.96,27.53-28.96l25.94-.82v9.49s-27.67,19.65-58.37,55.11c-10.99,12.7-22.37,28.28-31.89,45.61-8.59,15.64-24.18,54.64-24.18,54.64,0,0-3.25,8.39-3.61,11.33l-.05.03h.01Z" fill="#00a84f"/><path d="M.29,140.38L.33.35h64.25v107.47l-7.81,12.12-5.11,8.87s-16.55,3.94-19.37,4.93L.28,140.39h.01Z"/><path d="M.03,286.85L.35,107.82h64.24s-26.49,40.55-43.83,87.08C6.04,234.39,1.62,279.25.09,296.12c-.1,1.13-.06.5-.06.5v-9.77Z"/><polygon points="92.11 127.74 92.11 .35 118.11 .35 118.11 128.71 92.11 127.74" fill="#00a84f"/><rect x="205.66" y=".35" width="24.29" height="205.96"/><path d="M.01,296.8s17.27-20.43,29.66-31.54c11.72-10.5,40.46-33.81,59.97-44.05,19.52-10.25,39.55-18.3,56.02-22.93,45.34-12.74,58.75-11.81,58.75-11.81l25.53-.91v25.33s-24.64-2-64.64,3.62c-27.51,3.87-70.59,17.04-99.7,32.67-11.28,6.06-25.7,15.31-29.45,18.17-2.05,1.56-5.69,4.29-5.69,4.29l-.36.3s-13.09,11.43-17.7,15.62L.02,296.8h-.01Z"/><rect x="253.16" width="37.08" height="257.41"/><path d="M290.24,303.83s-13.72-8.98-32.48-16.08c-18.76-7.1-42.49-12.76-52.16-14.91-30.66-6.8-66.06-7.22-66.06-7.22,0,0-53.82,1.5-79.57,8.36-9.32,2.48-29.44,8.59-43.68,14.55C7.53,292.19,0,296.8,0,296.8v-.06s-.03.07.32-.23c2.81-2.38,16.65-13.78,32.63-23.11,2.57-1.5,20.31-10.2,22.7-11.28,12.26-5.54,28.8-14.13,53.4-20.67,25.04-6.66,48.89-9.82,62.99-9.82,22.3,0,51.61.35,76.66,4.72,10.29,1.8,41.54-4.26,41.54-4.26v71.74"/></svg>