<?xml version="1.0" encoding="UTF-8"?>
<svg id="Layer_2" xmlns="http://www.w3.org/2000/svg" version="1.1" viewBox="0 0 1728 1332">
  <!-- Generator: Adobe Illustrator 29.8.1, SVG Export Plug-In . SVG Version: 2.1.1 Build 2)  -->
  <defs>
    <style>
      .st0 {
        fill: #00a84f;
      }

      .st1 {
        isolation: isolate;
      }

      .st2 {
        fill: #fff;
      }

      .st3 {
        fill: #00a94f;
      }
    </style>
  </defs>
  <g class="st1">
    <g class="st1">
      <g class="st1">
        <g class="st1">
          <path d="M100.49,1172.98h64.97v3.74c0,17.29-5.14,35.99-14.96,49.31-4.67,6.31-22.2,28.04-57.96,28.04-46.27,0-80.86-35.29-80.86-80.63s34.82-80.63,81.33-80.63c14.96,0,32.48,3.74,47.68,15.43,7.01,5.38,13.55,12.38,18,18.46l-12.85,11.69c-4.44-6.31-9.58-11.92-14.72-16.12-7.48-6.08-19.16-13.09-37.86-13.09-37.63,0-63.8,28.28-63.8,64.5,0,42.54,33.89,64.04,63.33,64.04,20.8,0,38.79-10.52,47.68-26.17,2.8-4.91,5.84-12.39,6.31-22.2h-46.27v-16.36Z"/>
          <path d="M231.6,1095.39c10.52,0,26.17.7,37.86,8.65,9.11,6.08,17.06,17.99,17.06,34.59,0,23.84-15.66,41.37-39.26,43l49.54,69.64h-21.03l-47.44-68.24h-4.44v68.24h-17.29v-155.88h25.01ZM223.88,1167.6h10.98c21.5,0,34.35-10.28,34.35-28.51,0-8.65-2.57-17.29-12.39-22.9-7.01-3.97-14.96-4.44-22.44-4.44h-10.52v55.86Z"/>
          <path d="M414.12,1111.75h-63.57v46.27h61.7v16.36h-61.7v60.53h63.57v16.36h-80.86v-155.88h80.86v16.36Z"/>
          <path d="M536.11,1111.75h-63.57v46.27h61.7v16.36h-61.7v60.53h63.57v16.36h-80.86v-155.88h80.86v16.36Z"/>
          <path d="M577.24,1251.27v-162.42l121.53,127.37v-120.82h17.29v162.89l-121.53-127.37v120.36h-17.29Z"/>
          <path d="M949.28,1194.25c-4.21,5.84-10.28,13.32-19.86,23.14l26.17,33.89h-21.5l-16.83-21.73c-13.56,13.55-32.49,24.54-50.25,24.54-25.47,0-45.1-18.46-45.1-43.23,0-16.83,8.88-27.11,14.02-32.25,8.18-8.18,22.9-17.29,26.17-19.4-10.52-13.55-15.42-22.9-15.42-33.42,0-16.36,11.45-32.95,33.89-32.95s32.95,15.66,32.95,31.32c0,7.25-2.1,17.53-14.49,28.28-3.97,3.5-2.57,1.63-12.62,10.05l32.48,41.83c8.41-8.88,13.32-14.49,17.76-20.56l12.62,10.52ZM872.16,1172.04c-11.45,7.01-17.53,12.15-21.97,16.12-4.44,3.97-10.98,10.28-10.98,22.44,0,15.42,11.45,27.58,27.58,27.58s34.12-15.89,39.96-21.5l-34.59-44.64ZM876.37,1149.84l10.28-7.95c8.88-7.01,10.52-12.62,10.52-17.99,0-10.98-8.65-16.13-16.83-16.13-9.58,0-17.29,7.25-17.29,17.06,0,6.78,3.27,11.22,6.31,15.43l7.01,9.58Z"/>
          <path d="M1052.1,1095.39l41.13,116.85,48.84-124.8,46.27,124.8,45.57-116.85h19.16l-65.44,164.06-45.81-124.8-49.08,124.8-59.83-164.06h19.16Z"/>
          <path d="M1301.69,1158.72h79.93v-63.33h17.29v155.88h-17.29v-76.19h-79.93v76.19h-17.29v-155.88h17.29v63.33Z"/>
          <path d="M1465.75,1095.39v155.88h-17.29v-155.88h17.29Z"/>
          <path d="M1553.62,1111.75v139.52h-17.29v-139.52h-37.86v-16.36h93.01v16.36h-37.86Z"/>
          <path d="M1705.05,1111.75h-63.57v46.27h61.7v16.36h-61.7v60.53h63.57v16.36h-80.86v-155.88h80.86v16.36Z"/>
        </g>
      </g>
    </g>
  </g>
  <g>
    <path class="st0" d="M453.92,688.67"/>
    <path class="st3" d="M797.59,627.45"/>
    <path class="st2" d="M780.52,780.67"/>
    <path class="st2" d="M468.54,645.42"/>
    <rect x="854.69" y="80.73" width="80.29" height="467.76"/>
    <path d="M424.23,938.33s4.26-11.78,14.17-29.85c23.93-43.64,69.58-123.94,102.8-163.94,37.5-45.14,107.63-112.95,172.06-159.46,74.39-53.69,141.16-83.1,141.16-83.1l80.56-3.35v54.71c-62.85,19.59-114.37,42.12-153.14,61.33-44.24,21.94-100.49,50.2-164.4,102.42-37.24,30.41-65.71,59.69-85.52,81.85-17.97,21.67-35.96,43.37-53.93,65.05l-53.69,74.32h-.07v.02Z"/>
    <path class="st0" d="M424.23,938.33s3.38-31.62,11.84-67.88c11.11-47.85,44.04-132.72,64.29-171.06,0,0,20.23-43.94,41.63-77.57,14.15-22.19,41.82-71.83,69.21-107.14,53.44-68.86,79.65-83.78,79.65-83.78l75.05-2.38v27.46s-80.06,56.85-168.89,159.46c-31.8,36.75-64.73,81.82-92.27,131.97-24.86,45.25-69.96,158.09-69.96,158.09,0,0-9.4,24.27-10.45,32.79l-.14.08h.03v-.03h.01Z"/>
    <path d="M425.04,485.88l.11-405.15h185.9v310.94l-22.59,35.07-14.79,25.67s-47.88,11.39-56.05,14.26l-92.62,19.24h.03v-.03h.01Z"/>
    <path d="M424.29,909.66l.93-517.99h185.86s-76.65,117.32-126.81,251.95c-42.59,114.26-55.38,244.05-59.8,292.86-.29,3.27-.17,1.45-.17,1.45v-28.27h-.01Z"/>
    <polygon class="st0" points="690.7 449.31 690.7 80.73 765.93 80.73 765.93 452.12 690.7 449.31"/>
    <rect x="1019.24" y="80.73" width="70.28" height="595.9"/>
    <path d="M424.23,938.45s49.97-59.11,85.81-91.25c33.91-30.38,117.06-97.82,173.51-127.45,56.48-29.66,114.43-52.94,162.09-66.34,131.18-36.86,169.99-34.16,169.99-34.16l73.87-2.63v73.28s-71.29-5.79-187.03,10.47c-79.6,11.2-204.24,49.3-288.46,94.52-32.63,17.53-74.35,44.29-85.2,52.57-5.93,4.51-16.46,12.41-16.46,12.41l-1.04.86s-37.88,33.07-51.2,45.2l-35.82,32.52h-.06Z"/>
    <rect x="1156.68" y="80.73" width="107.28" height="749.63"/>
    <path d="M1263.96,958.91s-39.69-26.01-93.97-46.57-122.93-36.96-150.92-43.19c-88.72-19.7-191.12-20.91-191.12-20.91,0,0-155.72,4.34-230.22,24.22-26.97,7.18-85.19,24.89-126.38,42.15-25.35,10.6-47.13,23.95-47.13,23.95v-.17s-.08.21.93-.67c8.14-6.9,48.17-39.91,94.4-66.94,7.44-4.34,58.77-29.55,65.67-32.68,35.49-16.05,83.34-40.92,154.5-59.87,72.45-19.29,141.44-28.45,182.26-28.45,64.5,0,149.32,1.02,221.79,13.67,29.78,5.22,120.17-12.34,120.17-12.34v172.87"/>
    <path class="st2" d="M453.28,685.72"/>
    <path class="st2" d="M665.14,631.12"/>
  </g>
</svg>